<?xml version="1.0" standalone="no"?>
<!DOCTYPE svg PUBLIC "-//W3C//DTD SVG 20010904//EN"
 "http://www.w3.org/TR/2001/REC-SVG-20010904/DTD/svg10.dtd">
<svg version="1.0" xmlns="http://www.w3.org/2000/svg"
 width="700.000000pt" height="700.000000pt" viewBox="0 0 700.000000 700.000000"
 preserveAspectRatio="xMidYMid meet">
<metadata>
Created by potrace 1.11, written by Peter Selinger 2001-2013
</metadata>
<g transform="translate(0.000000,700.000000) scale(0.100000,-0.100000)"
fill="#000000" stroke="none">
<path d="M1497 5954 c-1 -1 -27 -4 -57 -7 -193 -18 -365 -176 -400 -369 -6
-34 -9 -649 -8 -1683 l3 -1629 2448 -1 c1347 0 2454 3 2460 7 16 10 14 3268
-2 3327 -37 132 -134 252 -246 305 -60 28 -68 31 -135 43 -28 5 -4057 12
-4063 7z m2028 -774 c-16 -67 -17 -83 -6 -90 9 -5 9 -13 0 -33 -10 -23 -8 -28
22 -55 34 -30 49 -75 29 -87 -13 -8 -13 -122 0 -130 6 -3 10 -13 10 -22 0 -20
74 -90 135 -127 88 -54 165 -180 165 -272 0 -25 7 -38 25 -50 14 -9 25 -26 25
-39 0 -12 9 -30 19 -39 25 -22 35 -64 20 -82 -15 -19 -16 -117 0 -122 23 -8
72 -55 86 -83 11 -20 12 -35 6 -53 -8 -20 -14 -157 -12 -253 1 -23 2 -23 161
-23 121 0 160 -3 161 -12 0 -7 0 -40 -1 -73 l-1 -61 100 0 c56 -1 101 2 102 5
1 3 2 21 4 39 5 54 18 62 107 60 92 -2 108 -11 108 -67 l0 -37 218 1 c119 0
223 -1 230 -3 8 -3 12 -32 12 -102 0 -70 -4 -99 -12 -102 -7 -2 -794 -3 -1748
-2 l-1735 0 0 104 0 104 219 1 219 0 3 44 c2 24 6 46 9 50 4 3 44 7 91 8 97 2
114 -7 114 -66 l0 -37 100 -1 100 0 0 73 0 74 163 2 162 3 1 110 c0 61 -4 129
-10 152 -12 53 2 84 59 125 34 25 40 35 42 69 1 22 -4 54 -12 72 -11 27 -11
36 1 59 8 16 19 28 24 28 6 0 10 10 10 22 0 12 11 33 24 47 16 17 26 43 30 76
14 106 93 215 202 276 30 17 54 37 54 45 0 7 9 18 20 24 11 6 20 19 20 30 0
10 5 20 11 22 14 5 15 104 1 138 -12 32 0 64 32 86 27 17 35 59 14 67 -10 4
-10 8 -2 14 17 12 20 45 6 70 -13 24 -1 71 21 85 19 12 48 -33 42 -62z m1725
-2107 l0 -103 -1750 0 -1750 0 0 103 0 103 1750 0 1750 0 0 -103z"/>
<path d="M596 1949 c-48 -8 -86 -36 -108 -80 -28 -53 -25 -277 3 -373 54 -181
198 -292 429 -330 58 -9 648 -12 2600 -11 2389 1 2529 2 2599 19 219 53 360
179 400 357 6 24 9 107 8 184 -2 129 -4 143 -25 173 -13 18 -38 40 -55 49 -30
15 -251 17 -2923 17 -1590 1 -2908 -2 -2928 -5z"/>
</g>
</svg>
